<svg xmlns="http://www.w3.org/2000/svg" xmlns:xlink="http://www.w3.org/1999/xlink" width="174" zoomAndPan="magnify" viewBox="0 0 130.5 30.000001" height="40" preserveAspectRatio="xMidYMid meet" version="1.2"><g id="3af85bce9e"><path style=" stroke:none;fill-rule:nonzero;fill:#705e5a;fill-opacity:1;" d="M 9.277344 15.636719 C 47.734375 15.265625 86.136719 14.789062 124.585938 14.660156 C 125.921875 14.6875 126.046875 16.796875 124.742188 16.972656 C 120.667969 17.375 116.546875 17.140625 112.457031 17.238281 C 104.828125 17.183594 97.203125 17.414062 89.570312 17.414062 C 63.285156 17.558594 37 18.070312 10.710938 18.0625 L 10.605469 18.292969 C 12.386719 20.253906 14.824219 21.597656 16.464844 23.671875 C 17.097656 24.832031 15.535156 26.109375 14.515625 25.195312 C 13.582031 24.40625 12.667969 23.585938 11.738281 22.792969 C 9.980469 21.296875 8.21875 19.804688 6.453125 18.320312 C 4.996094 17.175781 4.835938 16 6.265625 14.761719 C 8.660156 12.617188 11.042969 10.414062 12.964844 7.824219 C 13.476562 6.828125 15.074219 6.726562 15.457031 7.871094 C 15.695312 8.515625 15.476562 9.03125 15.035156 9.496094 C 13.1875 11.46875 11.332031 13.449219 9.277344 15.636719 Z M 9.277344 15.636719 "/><path style="fill:none;stroke-width:1;stroke-linecap:butt;stroke-linejoin:miter;stroke:#705e5a;stroke-opacity:1;stroke-miterlimit:4;" d="M -0.00198551 0.499436 L 69.586557 0.499436 " transform="matrix(0.725806,0,0,0.725806,30.860816,16.063288)"/></g></svg>