<svg xmlns="http://www.w3.org/2000/svg" xmlns:xlink="http://www.w3.org/1999/xlink" width="174" zoomAndPan="magnify" viewBox="0 0 130.5 30.000001" height="40" preserveAspectRatio="xMidYMid meet" version="1.2"><defs><clipPath id="8ec8e25f56"><path d="M 5 7 L 125.980469 7 L 125.980469 26 L 5 26 Z M 5 7 "/></clipPath></defs><g id="a8c447a008"><g clip-rule="nonzero" clip-path="url(#8ec8e25f56)"><path style=" stroke:none;fill-rule:nonzero;fill:#705e5a;fill-opacity:1;" d="M 121.539062 17.207031 C 83.082031 17.578125 44.679688 18.054688 6.230469 18.183594 C 4.894531 18.15625 4.769531 16.050781 6.074219 15.871094 C 10.148438 15.46875 14.269531 15.703125 18.359375 15.605469 C 25.988281 15.660156 33.613281 15.429688 41.246094 15.429688 C 67.53125 15.285156 93.816406 14.773438 120.105469 14.78125 L 120.210938 14.550781 C 118.429688 12.589844 115.992188 11.25 114.351562 9.175781 C 113.71875 8.015625 115.28125 6.734375 116.300781 7.648438 C 117.234375 8.4375 118.148438 9.257812 119.078125 10.050781 C 120.835938 11.546875 122.597656 13.039062 124.363281 14.523438 C 125.820312 15.667969 125.980469 16.84375 124.550781 18.082031 C 122.15625 20.230469 119.773438 22.433594 117.851562 25.019531 C 117.339844 26.015625 115.742188 26.117188 115.359375 24.972656 C 115.121094 24.328125 115.339844 23.8125 115.78125 23.347656 C 117.628906 21.375 119.480469 19.394531 121.539062 17.207031 Z M 121.539062 17.207031 "/></g><path style="fill:none;stroke-width:1;stroke-linecap:butt;stroke-linejoin:miter;stroke:#705e5a;stroke-opacity:1;stroke-miterlimit:4;" d="M -0.00198551 0.499436 L 69.586557 0.499436 " transform="matrix(0.725806,0,0,0.725806,30.860816,16.063288)"/></g></svg>