<svg xmlns="http://www.w3.org/2000/svg" xmlns:xlink="http://www.w3.org/1999/xlink" width="40" zoomAndPan="magnify" viewBox="0 0 30 30.000001" height="40" preserveAspectRatio="xMidYMid meet" version="1.2"><defs><clipPath id="a6181940b1"><path d="M 5 2.359375 L 14 2.359375 L 14 11 L 5 11 Z M 5 2.359375 "/></clipPath><clipPath id="13377a55f7"><path d="M 16 2.359375 L 25 2.359375 L 25 11 L 16 11 Z M 16 2.359375 "/></clipPath><clipPath id="4d1d13dd45"><path d="M 3 13 L 27 13 L 27 26.3125 L 3 26.3125 Z M 3 13 "/></clipPath><clipPath id="ecdbb7d2c6"><path d="M 2.152344 11 L 27.554688 11 L 27.554688 15 L 2.152344 15 Z M 2.152344 11 "/></clipPath><clipPath id="80428c750c"><path d="M 4.332031 12.410156 L 5.492188 12.410156 L 5.492188 13.574219 L 4.332031 13.574219 Z M 4.332031 12.410156 "/></clipPath><clipPath id="3326b90d96"><path d="M 4.910156 12.410156 L 5.492188 12.992188 L 4.910156 13.574219 L 4.332031 12.992188 Z M 4.910156 12.410156 "/></clipPath></defs><g id="bff5ffbab7"><g clip-rule="nonzero" clip-path="url(#a6181940b1)"><path style=" stroke:none;fill-rule:nonzero;fill:#ffffff;fill-opacity:1;" d="M 5.441406 9.492188 C 5.25 9.6875 5.25 10 5.441406 10.199219 C 5.640625 10.390625 5.953125 10.390625 6.148438 10.199219 L 13.136719 3.210938 C 13.328125 3.015625 13.328125 2.703125 13.136719 2.503906 C 12.9375 2.3125 12.625 2.3125 12.429688 2.503906 Z M 5.441406 9.492188 "/></g><g clip-rule="nonzero" clip-path="url(#13377a55f7)"><path style=" stroke:none;fill-rule:nonzero;fill:#ffffff;fill-opacity:1;" d="M 24.113281 9.492188 C 24.304688 9.6875 24.304688 10 24.113281 10.199219 C 23.914062 10.390625 23.601562 10.390625 23.40625 10.199219 L 16.417969 3.210938 C 16.226562 3.015625 16.226562 2.703125 16.417969 2.503906 C 16.617188 2.3125 16.929688 2.3125 17.125 2.503906 Z M 24.113281 9.492188 "/></g><g clip-rule="nonzero" clip-path="url(#4d1d13dd45)"><path style=" stroke:none;fill-rule:nonzero;fill:#ffffff;fill-opacity:1;" d="M 6.308594 25.933594 C 6.367188 26.15625 6.566406 26.3125 6.792969 26.3125 L 22.761719 26.3125 C 22.988281 26.3125 23.1875 26.15625 23.246094 25.933594 L 26.242188 13.957031 C 26.3125 13.691406 26.148438 13.421875 25.878906 13.351562 C 25.613281 13.285156 25.34375 13.445312 25.277344 13.71875 L 22.367188 25.3125 L 7.1875 25.3125 L 4.28125 13.71875 C 4.214844 13.445312 3.945312 13.285156 3.679688 13.351562 C 3.410156 13.421875 3.25 13.691406 3.316406 13.957031 Z M 6.308594 25.933594 "/></g><g clip-rule="nonzero" clip-path="url(#ecdbb7d2c6)"><path style=" stroke:none;fill-rule:nonzero;fill:#ffffff;fill-opacity:1;" d="M 2.300781 11.839844 L 2.300781 13.835938 C 2.300781 14.113281 2.527344 14.335938 2.800781 14.335938 L 26.753906 14.335938 C 27.027344 14.335938 27.253906 14.113281 27.253906 13.835938 L 27.253906 11.839844 C 27.253906 11.566406 27.027344 11.339844 26.753906 11.339844 L 2.800781 11.339844 C 2.527344 11.339844 2.300781 11.566406 2.300781 11.839844 Z M 2.300781 11.839844 "/></g><g clip-rule="nonzero" clip-path="url(#80428c750c)"><g clip-rule="nonzero" clip-path="url(#3326b90d96)"><path style=" stroke:none;fill-rule:nonzero;fill:#ffffff;fill-opacity:1;" d="M 4.332031 12.410156 L 5.492188 12.410156 L 5.492188 13.574219 L 4.332031 13.574219 Z M 4.332031 12.410156 "/></g></g></g></svg>