<svg xmlns="http://www.w3.org/2000/svg" xmlns:xlink="http://www.w3.org/1999/xlink" width="40" zoomAndPan="magnify" viewBox="0 0 30 30.000001" height="40" preserveAspectRatio="xMidYMid meet" version="1.2"><defs><clipPath id="1bf55a0afd"><path d="M 15 4.996094 L 27 4.996094 L 27 23.867188 L 15 23.867188 Z M 15 4.996094 "/></clipPath><clipPath id="8f384fa953"><path d="M 2.734375 4.996094 L 15 4.996094 L 15 23.867188 L 2.734375 23.867188 Z M 2.734375 4.996094 "/></clipPath></defs><g id="f218e68dce"><g clip-rule="nonzero" clip-path="url(#1bf55a0afd)"><path style=" stroke:none;fill-rule:nonzero;fill:#414141;fill-opacity:1;" d="M 25.367188 6.796875 C 24.347656 5.722656 23.058594 5.140625 21.5 5.066406 C 21.234375 5.019531 20.945312 4.996094 20.628906 4.996094 C 18.949219 4.996094 17.488281 5.773438 16.519531 6.988281 C 15.984375 7.597656 15.671875 8.277344 15.523438 9.054688 C 15.421875 9.445312 15.375 9.832031 15.375 10.222656 C 15.375 13.113281 17.707031 15.449219 20.601562 15.449219 C 21.769531 15.449219 22.863281 15.058594 23.738281 14.402344 C 23.738281 14.472656 23.738281 14.523438 23.738281 14.59375 C 23.738281 17.367188 21.625 20.136719 17.394531 22.910156 L 18.003906 23.859375 C 24.003906 20.140625 26.996094 16.054688 26.996094 11.609375 C 27.042969 9.566406 26.488281 7.960938 25.367188 6.796875 Z M 25.367188 6.796875 "/></g><g clip-rule="nonzero" clip-path="url(#8f384fa953)"><path style=" stroke:none;fill-rule:nonzero;fill:#414141;fill-opacity:1;" d="M 8.8125 5.066406 C 8.519531 5.019531 8.25 4.996094 7.960938 4.996094 C 5.066406 4.996094 2.734375 7.328125 2.734375 10.222656 C 2.734375 13.113281 5.066406 15.449219 7.960938 15.449219 C 9.175781 15.449219 10.269531 15.039062 11.171875 14.355469 C 11.171875 14.429688 11.195312 14.527344 11.195312 14.601562 C 11.195312 17.375 9.082031 20.144531 4.851562 22.917969 L 5.460938 23.863281 C 11.460938 20.140625 14.449219 16.054688 14.449219 11.609375 C 14.449219 9.570312 13.894531 7.960938 12.773438 6.796875 C 11.726562 5.699219 10.390625 5.117188 8.8125 5.066406 Z M 8.8125 5.066406 "/></g></g></svg>